<?xml version="1.0" encoding="UTF-8" standalone="no"?>
<!-- Created with Inkscape (http://www.inkscape.org/) -->

<svg
   xmlns:dc="http://purl.org/dc/elements/1.1/"
   xmlns:cc="http://creativecommons.org/ns#"
   xmlns:rdf="http://www.w3.org/1999/02/22-rdf-syntax-ns#"
   xmlns:svg="http://www.w3.org/2000/svg"
   xmlns="http://www.w3.org/2000/svg"
   xmlns:sodipodi="http://sodipodi.sourceforge.net/DTD/sodipodi-0.dtd"
   xmlns:inkscape="http://www.inkscape.org/namespaces/inkscape"
   version="1.1"
   width="210mm"
   height="297mm"
   id="svg3479"
   sodipodi:docname="LogoIOM.svg"
   inkscape:version="0.92.4 (5da689c313, 2019-01-14)">
  <metadata
     id="metadata70">
    <rdf:RDF>
      <cc:Work
         rdf:about="">
        <dc:format>image/svg+xml</dc:format>
        <dc:type
           rdf:resource="http://purl.org/dc/dcmitype/StillImage" />
        <dc:title />
      </cc:Work>
    </rdf:RDF>
  </metadata>
  <sodipodi:namedview
     pagecolor="#ffffff"
     bordercolor="#666666"
     borderopacity="1"
     objecttolerance="10"
     gridtolerance="10"
     guidetolerance="10"
     inkscape:pageopacity="0"
     inkscape:pageshadow="2"
     inkscape:window-width="1280"
     inkscape:window-height="991"
     id="namedview68"
     showgrid="false"
     showborder="false"
     inkscape:zoom="0.2102413"
     inkscape:cx="-326.12839"
     inkscape:cy="561.25983"
     inkscape:window-x="0"
     inkscape:window-y="0"
     inkscape:window-maximized="1"
     inkscape:current-layer="svg3479" />
  <defs
     id="defs3">
    <clipPath
       id="clipPath2859">
      <path
         d="m 0,170.08 170.08,0 L 170.08,0 0,0 0,170.08 z"
         id="path2861" />
    </clipPath>
    <clipPath
       id="clipPath2893">
      <path
         d="m 0,170.08 170.08,0 L 170.08,0 0,0 0,170.08 z"
         id="path2895" />
    </clipPath>
  </defs>
  <g
     id="layer1"
     transform="matrix(1.1247998,0,0,1.1251254,-19.445177,-58.212899)"
     style="stroke-width:0.88891846">
    <g
       transform="translate(67.228329,32.952749)"
       id="g3275"
       style="stroke-width:0.88891846">
      <rect
         width="88.58268"
         height="88.582672"
         x="88.582695"
         y="255.11807"
         id="rect2978-9"
         style="fill:#ffffff;stroke:#aa0000;stroke-width:0.88821858;stroke-miterlimit:4;stroke-dasharray:none" />
      <rect
         width="88.58268"
         height="88.58268"
         x="177.16534"
         y="255.11807"
         id="rect2976"
         style="fill:#800000;stroke:#ffffff;stroke-width:0.88891846" />
      <rect
         width="88.58268"
         height="88.582672"
         x="88.582664"
         y="166.53542"
         id="rect2978"
         style="fill:#800000;stroke:#800000;stroke-width:0.88821858;stroke-miterlimit:4;stroke-dasharray:none" />
      <rect
         width="88.58268"
         height="88.58268"
         x="354.33069"
         y="255.11807"
         id="rect2984"
         style="fill:#800000;stroke:#ffffff;stroke-width:0.88891846" />
      <rect
         width="88.582672"
         height="88.58268"
         x="265.74802"
         y="255.11807"
         id="rect2986"
         style="fill:#800000;stroke:#ffffff;stroke-width:0.88891846" />
      <g
         id="text2990"
         style="font-style:normal;font-variant:normal;font-weight:normal;font-stretch:normal;font-size:72px;line-height:125%;font-family:'Droid Sans';-inkscape-font-specification:'Droid Sans';text-align:start;writing-mode:lr-tb;text-anchor:start;fill:#ffffff;fill-opacity:1;stroke:none;stroke-width:0.88891846">
        <path
           d="m 218.87271,286.55978 h 6.46875 v 39.375 h -6.46875 v -39.375 m 0,-15.32812 h 6.46875 v 8.19141 h -6.46875 v -8.19141"
           id="path3267"
           inkscape:connector-curvature="0"
           style="stroke-width:0.88891846" />
      </g>
      <g
         id="text2994"
         style="font-style:normal;font-variant:normal;font-weight:normal;font-stretch:normal;font-size:72px;line-height:125%;font-family:'Droid Sans';-inkscape-font-specification:'Droid Sans';text-align:start;writing-mode:lr-tb;text-anchor:start;fill:#ffffff;fill-opacity:1;stroke:none;stroke-width:0.88891846">
        <path
           d="m 311.30499,283.87033 c -3.46877,4e-5 -6.21095,1.35941 -8.22656,4.07813 -2.01564,2.69534 -3.02345,6.39846 -3.02344,11.10937 -10e-6,4.71095 0.99608,8.42579 2.98828,11.14453 2.01561,2.69532 4.76952,4.04298 8.26172,4.04297 3.44529,10e-6 6.17576,-1.35937 8.19141,-4.07812 2.01559,-2.71874 3.0234,-6.42186 3.02344,-11.10938 -4e-5,-4.66404 -1.00785,-8.35544 -3.02344,-11.07422 -2.01565,-2.74215 -4.74612,-4.11324 -8.19141,-4.11328 m 0,-5.48437 c 5.62498,4e-5 10.04294,1.82816 13.25391,5.48437 3.2109,3.65628 4.81637,8.71878 4.81641,15.1875 -4e-5,6.44533 -1.60551,11.50782 -4.81641,15.1875 -3.21097,3.65625 -7.62893,5.48437 -13.25391,5.48438 -5.64845,-1e-5 -10.07813,-1.82813 -13.28906,-5.48438 -3.18751,-3.67968 -4.78125,-8.74217 -4.78125,-15.1875 0,-6.46872 1.59374,-11.53122 4.78125,-15.1875 3.21093,-3.65621 7.64061,-5.48433 13.28906,-5.48437"
           id="path3270"
           inkscape:connector-curvature="0"
           style="stroke-width:0.88891846" />
      </g>
      <g
         id="text2998"
         style="font-style:normal;font-variant:normal;font-weight:normal;font-stretch:normal;font-size:72px;line-height:125%;font-family:'Droid Sans';-inkscape-font-specification:'Droid Sans';text-align:start;writing-mode:lr-tb;text-anchor:start;fill:#ffffff;fill-opacity:1;stroke:none;stroke-width:0.88891846">
        <path
           d="m 403.63184,287.24533 c 1.61714,-2.90621 3.55074,-5.05074 5.80078,-6.43359 2.24995,-1.38278 4.89839,-2.07418 7.94531,-2.07422 4.10151,4e-5 7.26557,1.44144 9.49219,4.32422 2.2265,2.85941 3.33978,6.93753 3.33984,12.23437 v 23.76563 h -6.50391 v -23.55469 c -5e-5,-3.77341 -0.66802,-6.57419 -2.0039,-8.40234 -1.33599,-1.8281 -3.37505,-2.74216 -6.11719,-2.74219 -3.35161,3e-5 -6.00004,1.11331 -7.94531,3.33984 -1.94535,2.22659 -2.91801,5.26175 -2.91797,9.10547 v 22.25391 h -6.50391 v -23.55469 c -3e-5,-3.79685 -0.668,-6.59763 -2.0039,-8.40234 -1.33597,-1.8281 -3.39847,-2.74216 -6.1875,-2.74219 -3.30471,3e-5 -5.92971,1.12503 -7.875,3.375 -1.94533,2.22659 -2.91798,5.25002 -2.91797,9.07031 v 22.25391 h -6.50391 v -39.375 h 6.50391 v 6.11718 c 1.47655,-2.41402 3.24608,-4.19527 5.30859,-5.34375 2.06248,-1.14839 4.5117,-1.72261 7.34766,-1.72265 2.85934,4e-5 5.28512,0.7266 7.27734,2.17969 2.01559,1.45316 3.50387,3.56253 4.46485,6.32812"
           id="path3273"
           inkscape:connector-curvature="0"
           style="stroke-width:0.88891846" />
      </g>
      <g
         transform="matrix(0.36471276,0,0,0.36471276,13.122907,28.855234)"
         id="g3240"
         style="fill:#800000;stroke-width:0.88891846">
        <g
           transform="matrix(2.5287844,0,0,-2.5287844,95.42725,968.67434)"
           id="g2855"
           style="fill:#800000;stroke-width:0.88891846">
          <g
             clip-path="url(#clipPath2859)"
             id="g2857"
             style="fill:#800000;stroke-width:0.88891846">
            <g
               transform="translate(87.375,56.4312)"
               id="g2863"
               style="fill:#800000;stroke-width:0.88891846">
              <path
                 d="m 0,0 c -18.247,0 -33.066,14.796 -33.066,33.051 0,18.25 14.794,33.045 33.049,33.045 h 12.3 V 59.231 H 0.259 c -14.452,0 -26.437,-11.734 -26.437,-26.18 C -26.178,18.602 -14.446,6.883 0,6.883 H 27.629 V 0 Z"
                 id="path2865"
                 style="fill:#800000;fill-opacity:1;fill-rule:nonzero;stroke:none;stroke-width:0.88891846"
                 inkscape:connector-curvature="0" />
            </g>
            <g
               transform="translate(99.6582,95.0532)"
               id="g2867"
               style="fill:#800000;stroke-width:0.88891846">
              <path
                 d="m 0,0 h -12.213 c -3.115,0 -5.621,-2.528 -5.621,-5.646 v -21.203 c -3.258,0.522 -4.936,1.454 -7.018,2.768 l -0.08,18.25 c 0,6.98 5.639,12.639 12.625,12.639 H 0 Z"
                 id="path2869"
                 style="fill:#800000;fill-opacity:1;fill-rule:nonzero;stroke:none;stroke-width:0.88891846"
                 inkscape:connector-curvature="0" />
            </g>
            <g
               transform="translate(102.4863,112.2666)"
               id="g2871"
               style="fill:#800000;stroke-width:0.88891846">
              <path
                 d="m 0,0 c 12.459,0 22.602,-9.989 22.828,-22.391 v -33.444 h -6.775 v 33.524 c 0,8.804 -7.16,15.462 -15.965,15.462 h -15.199 c -8.793,0 -16.06,-6.62 -16.06,-15.425 l 0.052,-16.25 c -4.214,4.138 -6.815,9.382 -6.815,15.748 0,12.6 10.209,22.813 22.811,22.813 z"
                 id="path2873"
                 style="fill:#800000;fill-opacity:1;fill-rule:nonzero;stroke:none;stroke-width:0.88891846"
                 inkscape:connector-curvature="0" />
            </g>
          </g>
        </g>
        <g
           transform="matrix(2.5287844,0,0,-2.5287844,95.42725,968.67434)"
           id="g2889"
           style="fill:#800000;stroke-width:0.88891846">
          <g
             clip-path="url(#clipPath2893)"
             id="g2891"
             style="fill:#800000;stroke-width:0.88891846">
            <g
               transform="translate(87.375,56.4312)"
               id="g2897"
               style="fill:#800000;stroke-width:0.88891846">
              <path
                 d="m 0,0 c -18.247,0 -33.066,14.796 -33.066,33.051 0,18.25 14.794,33.045 33.049,33.045 h 12.3 V 59.231 H 0.259 c -14.452,0 -26.437,-11.734 -26.437,-26.18 C -26.178,18.602 -14.446,6.883 0,6.883 H 27.629 V 0 Z"
                 id="path2899"
                 style="fill:#800000;fill-opacity:1;fill-rule:nonzero;stroke:none;stroke-width:0.88891846"
                 inkscape:connector-curvature="0" />
            </g>
            <g
               transform="translate(99.6582,95.0532)"
               id="g2901"
               style="fill:#800000;stroke-width:0.88891846">
              <path
                 d="m 0,0 h -12.213 c -3.115,0 -5.621,-2.528 -5.621,-5.646 v -21.203 c -3.258,0.522 -4.936,1.454 -7.018,2.768 l -0.08,18.25 c 0,6.98 5.639,12.639 12.625,12.639 H 0 Z"
                 id="path2903"
                 style="fill:#800000;fill-opacity:1;fill-rule:nonzero;stroke:none;stroke-width:0.88891846"
                 inkscape:connector-curvature="0" />
            </g>
            <g
               transform="translate(102.4863,112.2666)"
               id="g2905"
               style="fill:#800000;stroke-width:0.88891846">
              <path
                 d="m 0,0 c 12.459,0 22.602,-9.989 22.828,-22.391 v -33.444 h -6.775 v 33.524 c 0,8.804 -7.16,15.462 -15.965,15.462 h -15.199 c -8.793,0 -16.06,-6.62 -16.06,-15.425 l 0.052,-16.25 c -4.214,4.138 -6.815,9.382 -6.815,15.748 0,12.6 10.209,22.813 22.811,22.813 z"
                 id="path2907"
                 style="fill:#800000;fill-opacity:1;fill-rule:nonzero;stroke:none;stroke-width:0.88891846"
                 inkscape:connector-curvature="0" />
            </g>
          </g>
        </g>
      </g>
      <rect
         width="88.58268"
         height="88.582672"
         x="88.582695"
         y="343.70078"
         id="rect3911"
         style="fill:#800000;fill-opacity:1;stroke:#800000;stroke-width:0.88821858;stroke-miterlimit:4;stroke-dasharray:none" />
      <g
         id="text3711"
         style="font-style:normal;font-variant:normal;font-weight:normal;font-stretch:normal;font-size:48px;line-height:89.99999762%;font-family:'Liberation Serif';-inkscape-font-specification:'Liberation Serif';text-align:end;writing-mode:lr-tb;text-anchor:end;fill:#800000;fill-opacity:1;stroke:none;stroke-width:0.88891846">
        <path
           d="m 235.61316,386.66846 4.03125,0.63281 v 1.24219 h -12.5625 v -1.24219 l 4.03125,-0.63281 v -27.70313 l -4.03125,-0.60937 v -1.24219 h 12.5625 v 1.24219 l -4.03125,0.60937 v 27.70313"
           id="path3210"
           inkscape:connector-curvature="0"
           style="stroke-width:0.88891846" />
        <path
           d="m 258.3241,382.35596 c -2e-5,0.98438 -0.15627,1.89063 -0.46875,2.71875 -0.29689,0.8125 -0.77346,1.51562 -1.42969,2.10937 -0.65627,0.57813 -1.50783,1.03125 -2.55469,1.35938 -1.03126,0.3125 -2.28126,0.46875 -3.75,0.46875 -0.73438,0 -1.46094,-0.0469 -2.17969,-0.14063 -0.70313,-0.0781 -1.35938,-0.17969 -1.96875,-0.30469 -0.60937,-0.10937 -1.14062,-0.22656 -1.59375,-0.35156 -0.45312,-0.125 -0.78125,-0.22656 -0.98437,-0.30469 v -5.41406 h 1.05469 l 1.14843,3.07031 c 0.48437,0.43751 1.10937,0.81251 1.875,1.125 0.76562,0.31251 1.66406,0.46876 2.69532,0.46875 1.45311,10e-6 2.5703,-0.31249 3.35156,-0.9375 0.79686,-0.64062 1.1953,-1.62499 1.19531,-2.95312 -1e-5,-0.78124 -0.16407,-1.42187 -0.49219,-1.92188 -0.32813,-0.51561 -0.75782,-0.9453 -1.28906,-1.28906 -0.53126,-0.34374 -1.14063,-0.62499 -1.82812,-0.84375 -0.67189,-0.23436 -1.3672,-0.46874 -2.08594,-0.70312 -0.70313,-0.23437 -1.39844,-0.49999 -2.08594,-0.79688 -0.67188,-0.29686 -1.27344,-0.67967 -1.80469,-1.14844 -0.53125,-0.46873 -0.96094,-1.05467 -1.28906,-1.75781 -0.32813,-0.70311 -0.49219,-1.57811 -0.49219,-2.625 0,-0.99998 0.17969,-1.8906 0.53907,-2.67187 0.35937,-0.78123 0.85937,-1.43748 1.5,-1.96875 0.65624,-0.53123 1.42968,-0.92967 2.32031,-1.19532 0.90624,-0.28122 1.89843,-0.42185 2.97656,-0.42187 1.06249,2e-5 2.10155,0.0781 3.11719,0.23437 1.01561,0.14065 1.99217,0.30471 2.92969,0.49219 v 4.80469 h -1.10157 l -0.98437,-2.55469 c -0.40626,-0.35935 -0.96095,-0.63279 -1.66406,-0.82031 -0.70314,-0.18748 -1.45314,-0.28123 -2.25,-0.28125 -1.26564,2e-5 -2.23439,0.31252 -2.90625,0.9375 -0.65626,0.62502 -0.98438,1.46877 -0.98438,2.53125 0,0.71877 0.16406,1.31252 0.49219,1.78125 0.32812,0.45314 0.7578,0.84376 1.28906,1.17187 0.54687,0.31252 1.16406,0.58596 1.85156,0.82032 0.68749,0.23439 1.39062,0.47657 2.10938,0.72656 0.71874,0.25001 1.42186,0.53907 2.10937,0.86719 0.68749,0.31251 1.29686,0.71876 1.82813,1.21875 0.54686,0.50001 0.98436,1.10938 1.3125,1.82812 0.32811,0.71876 0.49217,1.60938 0.49219,2.67188"
           id="path3212"
           inkscape:connector-curvature="0"
           style="stroke-width:0.88891846" />
        <path
           d="m 267.86316,389.01221 c -1.50001,0 -2.62501,-0.44532 -3.375,-1.33594 -0.73438,-0.89062 -1.10157,-2.14062 -1.10156,-3.75 v -15.44531 h -2.88282 v -1.05469 l 2.92969,-0.91406 2.36719,-4.99219 h 1.47656 v 4.99219 h 5.03906 v 1.96875 h -5.03906 v 15.02343 c -10e-6,1.01563 0.22656,1.78126 0.67969,2.29688 0.46874,0.51563 1.07812,0.77344 1.82812,0.77344 0.57812,0 1.14843,-0.0391 1.71094,-0.11719 0.57811,-0.0781 1.10936,-0.16406 1.59375,-0.25781 v 1.52343 c -0.23439,0.15626 -0.54689,0.31251 -0.9375,0.46875 -0.37501,0.15625 -0.79688,0.28907 -1.26562,0.39844 -0.45314,0.125 -0.93751,0.22656 -1.45313,0.30469 -0.51563,0.0781 -1.03907,0.11719 -1.57031,0.11719"
           id="path3214"
           inkscape:connector-curvature="0"
           style="stroke-width:0.88891846" />
        <path
           d="m 282.23035,359.31689 c -10e-6,0.34378 -0.0703,0.67191 -0.21094,0.98438 -0.12501,0.2969 -0.3047,0.56253 -0.53906,0.79687 -0.23439,0.23441 -0.50782,0.42191 -0.82032,0.5625 -0.3125,0.12503 -0.64063,0.18753 -0.98437,0.1875 -0.34376,3e-5 -0.67188,-0.0625 -0.98438,-0.1875 -0.29688,-0.14059 -0.5625,-0.32809 -0.79687,-0.5625 -0.23438,-0.23434 -0.42188,-0.49997 -0.5625,-0.79687 -0.125,-0.31247 -0.1875,-0.6406 -0.1875,-0.98438 0,-0.34372 0.0625,-0.67184 0.1875,-0.98437 0.14062,-0.31247 0.32812,-0.58591 0.5625,-0.82031 0.23437,-0.23435 0.49999,-0.41403 0.79687,-0.53907 0.3125,-0.14059 0.64062,-0.2109 0.98438,-0.21093 0.34374,3e-5 0.67187,0.0703 0.98437,0.21093 0.3125,0.12504 0.58593,0.30472 0.82032,0.53907 0.23436,0.2344 0.41405,0.50784 0.53906,0.82031 0.14062,0.31253 0.21093,0.64065 0.21094,0.98437 m -0.23438,27.58594 3.77344,0.58594 v 1.05469 h -11.41406 v -1.05469 l 3.75,-0.58594 v -18.75 l -3.11719,-0.58594 v -1.05468 h 7.00781 v 20.39062"
           id="path3216"
           inkscape:connector-curvature="0"
           style="stroke-width:0.88891846" />
        <path
           d="m 294.48816,389.01221 c -1.50001,0 -2.62501,-0.44532 -3.375,-1.33594 -0.73438,-0.89062 -1.10157,-2.14062 -1.10156,-3.75 v -15.44531 h -2.88282 v -1.05469 l 2.92969,-0.91406 2.36719,-4.99219 h 1.47656 v 4.99219 h 5.03906 v 1.96875 h -5.03906 v 15.02343 c -10e-6,1.01563 0.22656,1.78126 0.67969,2.29688 0.46874,0.51563 1.07812,0.77344 1.82812,0.77344 0.57812,0 1.14843,-0.0391 1.71094,-0.11719 0.57811,-0.0781 1.10936,-0.16406 1.59375,-0.25781 v 1.52343 c -0.23439,0.15626 -0.54689,0.31251 -0.9375,0.46875 -0.37501,0.15625 -0.79688,0.28907 -1.26562,0.39844 -0.45314,0.125 -0.93751,0.22656 -1.45313,0.30469 -0.51563,0.0781 -1.03907,0.11719 -1.57031,0.11719"
           id="path3218"
           inkscape:connector-curvature="0"
           style="stroke-width:0.88891846" />
        <path
           d="m 307.30847,382.26221 c -10e-6,1.29688 0.28906,2.29688 0.86719,3 0.59374,0.6875 1.55468,1.03125 2.88281,1.03125 0.87499,0 1.78124,-0.0547 2.71875,-0.16407 0.93749,-0.12499 1.84374,-0.31249 2.71875,-0.5625 v -17.41406 l -3.32812,-0.58594 v -1.05468 h 7.19531 v 20.39062 l 2.78906,0.58594 v 1.05469 h -6.42187 l -0.1875,-1.78125 c -0.45314,0.25 -0.99221,0.50781 -1.61719,0.77343 -0.62502,0.26563 -1.28126,0.50782 -1.96875,0.72657 -0.67189,0.21875 -1.35157,0.39843 -2.03906,0.53906 -0.68751,0.14062 -1.31251,0.21094 -1.875,0.21094 -0.84376,0 -1.60939,-0.11719 -2.29688,-0.35157 -0.6875,-0.23437 -1.28125,-0.60937 -1.78125,-1.125 -0.48438,-0.51562 -0.86719,-1.17968 -1.14844,-1.99218 -0.26562,-0.82812 -0.39844,-1.82812 -0.39843,-3 v -14.39063 l -2.8125,-0.58594 v -1.05468 h 6.70312 v 15.75"
           id="path3220"
           inkscape:connector-curvature="0"
           style="stroke-width:0.88891846" />
        <path
           d="m 331.80066,389.01221 c -1.50001,0 -2.62501,-0.44532 -3.375,-1.33594 -0.73438,-0.89062 -1.10157,-2.14062 -1.10156,-3.75 v -15.44531 h -2.88282 v -1.05469 l 2.92969,-0.91406 2.36719,-4.99219 h 1.47656 v 4.99219 h 5.03906 v 1.96875 h -5.03906 v 15.02343 c -10e-6,1.01563 0.22656,1.78126 0.67969,2.29688 0.46874,0.51563 1.07812,0.77344 1.82812,0.77344 0.57812,0 1.14843,-0.0391 1.71094,-0.11719 0.57811,-0.0781 1.10936,-0.16406 1.59375,-0.25781 v 1.52343 c -0.23439,0.15626 -0.54689,0.31251 -0.9375,0.46875 -0.37501,0.15625 -0.79688,0.28907 -1.26562,0.39844 -0.45314,0.125 -0.93751,0.22656 -1.45313,0.30469 -0.51563,0.0781 -1.03907,0.11719 -1.57031,0.11719"
           id="path3222"
           inkscape:connector-curvature="0"
           style="stroke-width:0.88891846" />
        <path
           d="m 359.45691,377.41064 c -2e-5,3.73439 -0.83596,6.60157 -2.50781,8.60157 -1.6719,2 -4.27346,3 -7.80469,3 -3.31251,0 -5.81251,-0.99219 -7.5,-2.97657 -1.6875,-1.98437 -2.53125,-4.85936 -2.53125,-8.625 0,-3.71873 0.84375,-6.56248 2.53125,-8.53125 1.68749,-1.96872 4.24999,-2.9531 7.6875,-2.95312 3.34373,2e-5 5.86717,0.96877 7.57031,2.90625 1.70311,1.92189 2.55467,4.78126 2.55469,8.57812 m -4.21875,0 c -2e-5,-1.51561 -0.10158,-2.86717 -0.30469,-4.05468 -0.20314,-1.20311 -0.54689,-2.21092 -1.03125,-3.02344 -0.46876,-0.82811 -1.09376,-1.45311 -1.875,-1.875 -0.78126,-0.43748 -1.7422,-0.65623 -2.88281,-0.65625 -1.15626,2e-5 -2.10939,0.21877 -2.85938,0.65625 -0.75,0.42189 -1.34375,1.04689 -1.78125,1.875 -0.4375,0.81252 -0.74219,1.82033 -0.91406,3.02344 -0.17188,1.18751 -0.25782,2.53907 -0.25781,4.05468 -10e-6,1.53126 0.0859,2.89845 0.25781,4.10157 0.17187,1.20313 0.47656,2.22656 0.91406,3.07031 0.4375,0.82813 1.03125,1.46875 1.78125,1.92187 0.74999,0.43751 1.70312,0.65626 2.85938,0.65625 1.14061,10e-6 2.10155,-0.21874 2.88281,-0.65625 0.78124,-0.45312 1.40624,-1.09374 1.875,-1.92187 0.48436,-0.84375 0.82811,-1.86718 1.03125,-3.07031 0.20311,-1.20312 0.30467,-2.57031 0.30469,-4.10157"
           id="path3224"
           inkscape:connector-curvature="0"
           style="stroke-width:0.88891846" />
        <path
           d="m 380.15222,372.79346 c -10e-6,2.18751 0.16406,4.16407 0.49219,5.92968 0.32812,1.76564 0.89062,3.27345 1.6875,4.52344 0.79686,1.25001 1.86718,2.21876 3.21094,2.90625 1.34373,0.67188 3.03123,1.00782 5.0625,1.00781 2.03123,10e-6 3.71873,-0.33593 5.0625,-1.00781 1.34372,-0.68749 2.41403,-1.65624 3.21093,-2.90625 0.81248,-1.24999 1.38279,-2.7578 1.71094,-4.52344 0.3281,-1.76561 0.49216,-3.74217 0.49219,-5.92968 -3e-5,-2.17186 -0.16409,-4.1328 -0.49219,-5.88282 -0.32815,-1.74997 -0.89846,-3.23435 -1.71094,-4.45312 -0.7969,-1.23435 -1.86721,-2.17966 -3.21093,-2.83594 -1.34377,-0.65622 -3.03127,-0.98434 -5.0625,-0.98437 -2.03127,3e-5 -3.71877,0.32815 -5.0625,0.98437 -1.34376,0.65628 -2.41408,1.60159 -3.21094,2.83594 -0.79688,1.21877 -1.35938,2.70315 -1.6875,4.45312 -0.32813,1.75002 -0.4922,3.71096 -0.49219,5.88282 m -4.89844,0 c 0,-2.78123 0.33594,-5.17967 1.00782,-7.19532 0.68749,-2.0156 1.67968,-3.67966 2.97656,-4.99218 1.29687,-1.31247 2.89843,-2.28122 4.80469,-2.90625 1.90623,-0.62497 4.09373,-0.93747 6.5625,-0.9375 2.3906,3e-5 4.53122,0.31253 6.42187,0.9375 1.90623,0.62503 3.52341,1.59378 4.85156,2.90625 1.3281,1.31252 2.34372,2.97658 3.04688,4.99218 0.70309,2.01565 1.05465,4.41409 1.05469,7.19532 -4e-5,2.78126 -0.3516,5.19532 -1.05469,7.24218 -0.70316,2.03126 -1.71878,3.71095 -3.04688,5.03907 -1.32815,1.32812 -2.94533,2.32031 -4.85156,2.97656 -1.89065,0.64062 -4.03127,0.96094 -6.42187,0.96094 -2.39064,0 -4.53127,-0.32032 -6.42188,-0.96094 -1.89063,-0.65625 -3.50001,-1.64844 -4.82812,-2.97656 -1.32813,-1.32812 -2.34376,-3.00781 -3.04688,-5.03907 -0.70313,-2.04686 -1.05469,-4.46092 -1.05469,-7.24218"
           id="path3226"
           inkscape:connector-curvature="0"
           style="stroke-width:0.88891846" />
        <path
           d="m 413.24597,368.48096 h -3.79687 v -1.14844 l 3.79687,-0.91406 v -1.54688 c 0,-1.65622 0.16406,-3.10935 0.49219,-4.35937 0.34374,-1.2656 0.82812,-2.32029 1.45312,-3.16407 0.64062,-0.85934 1.41406,-1.50778 2.32032,-1.94531 0.92186,-0.43746 1.95311,-0.65621 3.09375,-0.65625 0.70311,4e-5 1.32811,0.0469 1.875,0.14063 0.54686,0.0782 1.03904,0.17972 1.47656,0.30468 v 4.80469 h -1.14844 l -1.05469,-2.88281 c -0.25001,-0.15622 -0.52345,-0.27341 -0.82031,-0.35156 -0.29689,-0.0937 -0.66407,-0.1406 -1.10156,-0.14063 -0.54689,3e-5 -0.9922,0.12503 -1.33594,0.375 -0.34376,0.23441 -0.6172,0.60941 -0.82031,1.125 -0.20314,0.50003 -0.34376,1.14066 -0.42188,1.92188 -0.0781,0.78127 -0.11719,1.71877 -0.11718,2.8125 v 3.65625 h 5.85937 v 1.96875 h -5.85937 v 18.23437 l 4.75781,0.77344 v 1.05469 h -11.90625 v -1.05469 l 3.25781,-0.77344 v -18.23437"
           id="path3228"
           inkscape:connector-curvature="0"
           style="stroke-width:0.88891846" />
        <path
           d="m 428.43347,368.48096 h -3.79687 v -1.14844 l 3.79687,-0.91406 v -1.54688 c 0,-1.65622 0.16406,-3.10935 0.49219,-4.35937 0.34374,-1.2656 0.82812,-2.32029 1.45312,-3.16407 0.64062,-0.85934 1.41406,-1.50778 2.32032,-1.94531 0.92186,-0.43746 1.95311,-0.65621 3.09375,-0.65625 0.70311,4e-5 1.32811,0.0469 1.875,0.14063 0.54686,0.0782 1.03904,0.17972 1.47656,0.30468 v 4.80469 h -1.14844 l -1.05469,-2.88281 c -0.25001,-0.15622 -0.52345,-0.27341 -0.82031,-0.35156 -0.29689,-0.0937 -0.66407,-0.1406 -1.10156,-0.14063 -0.54689,3e-5 -0.9922,0.12503 -1.33594,0.375 -0.34376,0.23441 -0.6172,0.60941 -0.82031,1.125 -0.20314,0.50003 -0.34376,1.14066 -0.42188,1.92188 -0.0781,0.78127 -0.11719,1.71877 -0.11718,2.8125 v 3.65625 h 5.85937 v 1.96875 h -5.85937 v 18.23437 l 4.75781,0.77344 v 1.05469 h -11.90625 v -1.05469 l 3.25781,-0.77344 v -18.23437"
           id="path3230"
           inkscape:connector-curvature="0"
           style="stroke-width:0.88891846" />
        <path
           d="m 448.0741,359.31689 c -10e-6,0.34378 -0.0703,0.67191 -0.21094,0.98438 -0.12501,0.2969 -0.3047,0.56253 -0.53906,0.79687 -0.23439,0.23441 -0.50782,0.42191 -0.82032,0.5625 -0.3125,0.12503 -0.64063,0.18753 -0.98437,0.1875 -0.34376,3e-5 -0.67188,-0.0625 -0.98438,-0.1875 -0.29688,-0.14059 -0.5625,-0.32809 -0.79687,-0.5625 -0.23438,-0.23434 -0.42188,-0.49997 -0.5625,-0.79687 -0.125,-0.31247 -0.1875,-0.6406 -0.1875,-0.98438 0,-0.34372 0.0625,-0.67184 0.1875,-0.98437 0.14062,-0.31247 0.32812,-0.58591 0.5625,-0.82031 0.23437,-0.23435 0.49999,-0.41403 0.79687,-0.53907 0.3125,-0.14059 0.64062,-0.2109 0.98438,-0.21093 0.34374,3e-5 0.67187,0.0703 0.98437,0.21093 0.3125,0.12504 0.58593,0.30472 0.82032,0.53907 0.23436,0.2344 0.41405,0.50784 0.53906,0.82031 0.14062,0.31253 0.21093,0.64065 0.21094,0.98437 m -0.23438,27.58594 3.77344,0.58594 v 1.05469 H 440.1991 v -1.05469 l 3.75,-0.58594 v -18.75 l -3.11719,-0.58594 v -1.05468 h 7.00781 v 20.39062"
           id="path3232"
           inkscape:connector-curvature="0"
           style="stroke-width:0.88891846" />
        <path
           d="m 472.33191,387.20752 c -0.40627,0.29688 -0.89064,0.5625 -1.45313,0.79687 -0.56251,0.21875 -1.16408,0.39844 -1.80468,0.53907 -0.64064,0.15625 -1.31252,0.27343 -2.01563,0.35156 -0.68751,0.0781 -1.35939,0.11719 -2.01562,0.11719 -1.90626,0 -3.53907,-0.25782 -4.89844,-0.77344 -1.34376,-0.53125 -2.44532,-1.29687 -3.30469,-2.29688 -0.85938,-0.99999 -1.49219,-2.21874 -1.89844,-3.65625 -0.40625,-1.45311 -0.60937,-3.09374 -0.60937,-4.92187 0,-1.99999 0.25781,-3.71874 0.77344,-5.15625 0.53124,-1.45311 1.26562,-2.64061 2.20312,-3.5625 0.9375,-0.93748 2.04687,-1.62498 3.32813,-2.0625 1.29686,-0.43748 2.71092,-0.65623 4.24218,-0.65625 1.26562,2e-5 2.49218,0.0781 3.67969,0.23437 1.18748,0.14065 2.26561,0.30471 3.23438,0.49219 v 6.14063 h -1.28907 l -1.00781,-3.89063 c -0.57814,-0.3281 -1.28126,-0.59373 -2.10937,-0.79687 -0.81252,-0.20311 -1.66408,-0.30467 -2.55469,-0.30469 -1.01564,2e-5 -1.91407,0.18752 -2.69531,0.5625 -0.76564,0.35939 -1.42189,0.92971 -1.96875,1.71094 -0.53126,0.78126 -0.93751,1.77345 -1.21875,2.97656 -0.26563,1.20314 -0.39845,2.64064 -0.39844,4.3125 -10e-6,1.40626 0.11718,2.6797 0.35156,3.82031 0.23437,1.12501 0.64843,2.08594 1.24219,2.88281 0.59374,0.79688 1.39062,1.41407 2.39062,1.85157 1.01562,0.4375 2.29687,0.65625 3.84375,0.65625 0.53124,0 1.0703,-0.0156 1.61719,-0.0469 0.56249,-0.0469 1.10155,-0.10156 1.61719,-0.16406 0.53123,-0.0781 1.02342,-0.16406 1.47656,-0.25781 0.46873,-0.0937 0.88279,-0.19531 1.24219,-0.30469 v 1.40625"
           id="path3234"
           inkscape:connector-curvature="0"
           style="stroke-width:0.88891846" />
        <path
           d="m 482.66785,359.31689 c -10e-6,0.34378 -0.0703,0.67191 -0.21094,0.98438 -0.12501,0.2969 -0.3047,0.56253 -0.53906,0.79687 -0.23439,0.23441 -0.50782,0.42191 -0.82032,0.5625 -0.3125,0.12503 -0.64063,0.18753 -0.98437,0.1875 -0.34376,3e-5 -0.67188,-0.0625 -0.98438,-0.1875 -0.29688,-0.14059 -0.5625,-0.32809 -0.79687,-0.5625 -0.23438,-0.23434 -0.42188,-0.49997 -0.5625,-0.79687 -0.125,-0.31247 -0.1875,-0.6406 -0.1875,-0.98438 0,-0.34372 0.0625,-0.67184 0.1875,-0.98437 0.14062,-0.31247 0.32812,-0.58591 0.5625,-0.82031 0.23437,-0.23435 0.49999,-0.41403 0.79687,-0.53907 0.3125,-0.14059 0.64062,-0.2109 0.98438,-0.21093 0.34374,3e-5 0.67187,0.0703 0.98437,0.21093 0.3125,0.12504 0.58593,0.30472 0.82032,0.53907 0.23436,0.2344 0.41405,0.50784 0.53906,0.82031 0.14062,0.31253 0.21093,0.64065 0.21094,0.98437 m -0.23438,27.58594 3.77344,0.58594 v 1.05469 h -11.41406 v -1.05469 l 3.75,-0.58594 v -18.75 l -3.11719,-0.58594 v -1.05468 h 7.00781 v 20.39062"
           id="path3236"
           inkscape:connector-curvature="0"
           style="stroke-width:0.88891846" />
        <path
           d="m 494.69128,368.29346 c 0.4375,-0.24998 0.95312,-0.51561 1.54688,-0.79688 0.60936,-0.28123 1.24218,-0.53904 1.89844,-0.77344 0.65623,-0.23435 1.31248,-0.42185 1.96875,-0.5625 0.65623,-0.15622 1.26561,-0.23435 1.82812,-0.23437 0.84374,2e-5 1.61717,0.11721 2.32031,0.35156 0.70311,0.2344 1.30467,0.6094 1.80469,1.125 0.51561,0.51565 0.91404,1.18752 1.19531,2.01563 0.29686,0.82814 0.4453,1.82814 0.44532,3 v 14.48437 l 2.67187,0.58594 v 1.05469 h -9.49219 v -1.05469 l 2.92969,-0.58594 v -14.0625 c -2e-5,-1.29686 -0.32033,-2.31248 -0.96094,-3.04687 -0.62501,-0.74998 -1.60157,-1.12498 -2.92968,-1.125 -0.43752,2e-5 -0.89845,0.0235 -1.38282,0.0703 -0.48438,0.0469 -0.96094,0.10158 -1.42968,0.16406 -0.46876,0.0625 -0.91407,0.14065 -1.33594,0.23438 -0.40626,0.0781 -0.75001,0.14845 -1.03125,0.21093 v 17.55469 l 2.97656,0.58594 v 1.05469 h -9.51562 v -1.05469 l 2.64843,-0.58594 v -18.75 l -2.64843,-0.58594 v -1.05468 h 6.28125 l 0.21093,1.78125"
           id="path3238"
           inkscape:connector-curvature="0"
           style="stroke-width:0.88891846" />
        <path
           d="m 521.99597,366.02002 c 0.99999,2e-5 1.92968,0.0938 2.78906,0.28125 0.85936,0.18752 1.60155,0.50783 2.22657,0.96094 0.62498,0.45314 1.10935,1.07033 1.45312,1.85156 0.35936,0.76564 0.53905,1.73439 0.53906,2.90625 v 14.88281 l 2.74219,0.58594 v 1.05469 h -6.04687 l -0.44532,-2.20313 c -0.23438,0.23438 -0.5547,0.50782 -0.96093,0.82031 -0.39064,0.31251 -0.8672,0.60938 -1.42969,0.89063 -0.56251,0.26562 -1.21876,0.49219 -1.96875,0.67969 -0.73438,0.1875 -1.5547,0.28125 -2.46094,0.28125 -1.0625,0 -1.96094,-0.16407 -2.69531,-0.49219 -0.71875,-0.32813 -1.29688,-0.78125 -1.73438,-1.35938 -0.4375,-0.59374 -0.75,-1.28906 -0.9375,-2.08593 -0.1875,-0.8125 -0.28125,-1.6875 -0.28125,-2.625 0,-0.96875 0.11719,-1.80468 0.35157,-2.50782 0.23437,-0.71874 0.56249,-1.3203 0.98437,-1.80468 0.42187,-0.48437 0.91406,-0.87499 1.47656,-1.17188 0.57812,-0.31249 1.19531,-0.55467 1.85157,-0.72656 0.67186,-0.17186 1.37499,-0.28905 2.10937,-0.35156 0.74999,-0.0625 1.49999,-0.10155 2.25,-0.11719 l 3.30469,-0.0937 v -3.44531 c -10e-6,-0.65624 -0.0547,-1.24999 -0.16406,-1.78125 -0.10939,-0.54686 -0.29689,-1.01561 -0.5625,-1.40625 -0.25002,-0.39061 -0.59377,-0.6953 -1.03125,-0.91407 -0.43752,-0.21872 -0.98439,-0.3281 -1.64063,-0.32812 -0.75001,2e-5 -1.50782,0.10158 -2.27344,0.30469 -0.76563,0.20314 -1.4375,0.46877 -2.01562,0.79687 l -0.79688,2.74219 h -1.3125 v -4.80469 c 1.01562,-0.21873 2.0625,-0.40623 3.14063,-0.5625 1.09374,-0.17185 2.27343,-0.25779 3.53906,-0.25781 m 3.11719,11.29687 -3.07031,0.0937 c -0.92189,0.0313 -1.71876,0.12502 -2.39063,0.28125 -0.67188,0.14064 -1.22657,0.39064 -1.66406,0.75 -0.43751,0.35939 -0.76563,0.85158 -0.98438,1.47657 -0.21875,0.62501 -0.32813,1.42188 -0.32812,2.39062 -10e-6,2.75001 1.11718,4.125 3.35156,4.125 1.06249,0 1.97655,-0.11718 2.74219,-0.35156 0.78124,-0.25 1.56249,-0.5625 2.34375,-0.9375 v -7.82813"
           id="path3240"
           inkscape:connector-curvature="0"
           style="stroke-width:0.88891846" />
        <path
           d="m 302.9491,430.10283 c -0.68752,0.54688 -1.54689,1.03906 -2.57813,1.47656 -1.01564,0.42188 -2.21876,0.63282 -3.60937,0.63282 -6.01563,0 -9.02344,-3.75781 -9.02344,-11.27344 0,-1.82811 0.19531,-3.46874 0.58594,-4.92188 0.40624,-1.46873 1.02343,-2.71092 1.85156,-3.72656 0.82812,-1.03123 1.87499,-1.81248 3.14062,-2.34375 1.26562,-0.54685 2.76562,-0.82029 4.5,-0.82031 0.79687,2e-5 1.64062,0.0469 2.53125,0.14062 0.90624,0.0938 1.77343,0.22659 2.60157,0.39844 -0.0313,-0.17185 -0.0547,-0.42185 -0.0703,-0.75 -0.0156,-0.34373 -0.0313,-0.7031 -0.0469,-1.07812 -2e-5,-0.3906 -0.008,-0.77342 -0.0234,-1.14844 -2e-5,-0.37498 -2e-5,-0.67966 0,-0.91406 v -5.71875 l -3.70312,-0.5625 v -1.05469 h 7.59375 v 31.66406 l 2.71875,0.58594 v 1.05469 h -6.1875 l -0.28125,-1.64063 m -10.99219,-9.16406 c -10e-6,1.64063 0.14062,3.02344 0.42187,4.14844 0.29687,1.125 0.71093,2.03906 1.24219,2.74218 0.53124,0.68751 1.17187,1.18751 1.92188,1.5 0.74999,0.29688 1.58592,0.44532 2.50781,0.44532 0.93749,0 1.8203,-0.0859 2.64844,-0.25782 0.82811,-0.18749 1.53123,-0.40624 2.10937,-0.65625 v -17.41406 c -0.65626,-0.12498 -1.41408,-0.21873 -2.27344,-0.28125 -0.85938,-0.0781 -1.68751,-0.11717 -2.48437,-0.11719 -2.07814,2e-5 -3.6172,0.83596 -4.61719,2.50782 -0.98438,1.67189 -1.47657,4.13282 -1.47656,7.38281"
           id="path3242"
           inkscape:connector-curvature="0"
           style="stroke-width:0.88891846" />
        <path
           d="m 316.09753,420.65752 v 0.42187 c 0,1.14064 0.0781,2.23439 0.23438,3.28125 0.17187,1.04688 0.49999,1.97657 0.98437,2.78907 0.5,0.79687 1.19531,1.4375 2.08594,1.92187 0.89062,0.46875 2.06249,0.70313 3.51563,0.70313 0.46873,0 0.96092,-0.0156 1.47656,-0.0469 0.51561,-0.0469 1.03123,-0.10156 1.54687,-0.16406 0.51561,-0.0625 1.01561,-0.13281 1.5,-0.21094 0.48436,-0.0781 0.92967,-0.16406 1.33594,-0.25781 v 1.3125 c -0.35939,0.23437 -0.79689,0.46094 -1.3125,0.67969 -0.50002,0.20312 -1.0547,0.39062 -1.66406,0.5625 -0.60939,0.17187 -1.25783,0.30468 -1.94531,0.39843 -0.68752,0.10938 -1.38283,0.16407 -2.08594,0.16407 -1.82814,0 -3.37501,-0.25 -4.64063,-0.75 -1.25,-0.5 -2.26563,-1.24219 -3.04687,-2.22657 -0.78125,-0.98437 -1.34375,-2.20312 -1.6875,-3.65625 -0.34375,-1.45311 -0.51563,-3.12499 -0.51563,-5.01562 0,-3.84374 0.80469,-6.71092 2.41407,-8.60156 1.60937,-1.89061 3.90624,-2.83592 6.89062,-2.83594 1.17186,2e-5 2.26561,0.15627 3.28125,0.46875 1.03124,0.31252 1.92967,0.83596 2.69531,1.57031 0.76561,0.7344 1.36717,1.71877 1.80469,2.95313 0.45311,1.23439 0.67967,2.77345 0.67969,4.61718 v 1.92188 h -13.54688 m 5.08594,-9.65625 c -0.87501,2e-5 -1.63282,0.18752 -2.27344,0.5625 -0.625,0.35939 -1.14844,0.87502 -1.57031,1.54687 -0.40626,0.6719 -0.71094,1.49221 -0.91406,2.46094 -0.18751,0.95314 -0.28126,2.02345 -0.28125,3.21094 h 9.42187 c -1e-5,-1.18749 -0.0703,-2.2578 -0.21093,-3.21094 -0.12502,-0.96873 -0.35939,-1.78904 -0.70313,-2.46094 -0.32814,-0.67185 -0.77345,-1.18748 -1.33594,-1.54687 -0.56251,-0.37498 -1.27345,-0.56248 -2.13281,-0.5625"
           id="path3244"
           inkscape:connector-curvature="0"
           style="stroke-width:0.88891846" />
        <path
           d="m 340.16785,402.51689 c -10e-6,0.34378 -0.0703,0.67191 -0.21094,0.98438 -0.12501,0.2969 -0.3047,0.56253 -0.53906,0.79687 -0.23439,0.23441 -0.50782,0.42191 -0.82032,0.5625 -0.3125,0.12503 -0.64063,0.18753 -0.98437,0.1875 -0.34376,3e-5 -0.67188,-0.0625 -0.98438,-0.1875 -0.29688,-0.14059 -0.5625,-0.32809 -0.79687,-0.5625 -0.23438,-0.23434 -0.42188,-0.49997 -0.5625,-0.79687 -0.125,-0.31247 -0.1875,-0.6406 -0.1875,-0.98438 0,-0.34372 0.0625,-0.67184 0.1875,-0.98437 0.14062,-0.31247 0.32812,-0.58591 0.5625,-0.82031 0.23437,-0.23435 0.49999,-0.41404 0.79687,-0.53907 0.3125,-0.14059 0.64062,-0.2109 0.98438,-0.21093 0.34374,3e-5 0.67187,0.0703 0.98437,0.21093 0.3125,0.12503 0.58593,0.30472 0.82032,0.53907 0.23436,0.2344 0.41405,0.50784 0.53906,0.82031 0.14062,0.31253 0.21093,0.64065 0.21094,0.98437 m -0.23438,27.58594 3.77344,0.58594 v 1.05469 h -11.41406 v -1.05469 l 3.75,-0.58594 v -18.75 l -3.11719,-0.58594 v -1.05468 h 7.00781 v 20.39062"
           id="path3246"
           inkscape:connector-curvature="0"
           style="stroke-width:0.88891846" />
        <path
           d="m 376.80066,431.74346 h -0.82031 l -11.50782,-27.02344 v 25.14844 l 4.21875,0.63281 v 1.24219 h -10.71093 v -1.24219 l 4.03125,-0.63281 v -27.70313 l -4.03125,-0.60937 v -1.24219 h 9.51562 l 10.21875,23.90625 11.15625,-23.90625 h 9 v 1.24219 l -4.03125,0.60937 v 27.70313 l 4.03125,0.63281 v 1.24219 h -12.75 v -1.24219 l 4.21875,-0.63281 v -25.14844 l -12.53906,27.02344"
           id="path3248"
           inkscape:connector-curvature="0"
           style="stroke-width:0.88891846" />
        <path
           d="m 410.15222,409.22002 c 0.99999,2e-5 1.92968,0.0938 2.78906,0.28125 0.85936,0.18752 1.60155,0.50783 2.22657,0.96094 0.62498,0.45314 1.10935,1.07033 1.45312,1.85156 0.35936,0.76564 0.53905,1.73439 0.53906,2.90625 v 14.88281 l 2.74219,0.58594 v 1.05469 h -6.04687 l -0.44532,-2.20313 c -0.23438,0.23438 -0.5547,0.50782 -0.96093,0.82031 -0.39064,0.3125 -0.8672,0.60938 -1.42969,0.89063 -0.56251,0.26562 -1.21876,0.49219 -1.96875,0.67969 -0.73438,0.1875 -1.5547,0.28125 -2.46094,0.28125 -1.0625,0 -1.96094,-0.16407 -2.69531,-0.49219 -0.71875,-0.32813 -1.29688,-0.78125 -1.73438,-1.35938 -0.4375,-0.59374 -0.75,-1.28906 -0.9375,-2.08593 -0.1875,-0.8125 -0.28125,-1.6875 -0.28125,-2.625 0,-0.96875 0.11719,-1.80468 0.35157,-2.50782 0.23437,-0.71874 0.56249,-1.3203 0.98437,-1.80468 0.42187,-0.48437 0.91406,-0.87499 1.47656,-1.17188 0.57812,-0.31249 1.19531,-0.55467 1.85157,-0.72656 0.67186,-0.17186 1.37499,-0.28905 2.10937,-0.35156 0.74999,-0.0625 1.49999,-0.10155 2.25,-0.11719 l 3.30469,-0.0937 v -3.44531 c -10e-6,-0.65624 -0.0547,-1.24999 -0.16406,-1.78125 -0.10939,-0.54686 -0.29689,-1.01561 -0.5625,-1.40625 -0.25002,-0.39061 -0.59377,-0.6953 -1.03125,-0.91407 -0.43752,-0.21873 -0.98439,-0.3281 -1.64063,-0.32812 -0.75001,2e-5 -1.50782,0.10158 -2.27344,0.30469 -0.76563,0.20314 -1.4375,0.46877 -2.01562,0.79687 l -0.79688,2.74219 h -1.3125 v -4.80469 c 1.01562,-0.21873 2.0625,-0.40623 3.14063,-0.5625 1.09374,-0.17185 2.27343,-0.25779 3.53906,-0.25781 m 3.11719,11.29687 -3.07031,0.0937 c -0.92189,0.0313 -1.71876,0.12501 -2.39063,0.28125 -0.67188,0.14064 -1.22657,0.39064 -1.66406,0.75 -0.43751,0.35939 -0.76563,0.85158 -0.98438,1.47657 -0.21875,0.625 -0.32813,1.42188 -0.32812,2.39062 -10e-6,2.75 1.11718,4.125 3.35156,4.125 1.06249,0 1.97655,-0.11718 2.74219,-0.35156 0.78124,-0.25 1.56249,-0.5625 2.34375,-0.9375 v -7.82813"
           id="path3250"
           inkscape:connector-curvature="0"
           style="stroke-width:0.88891846" />
        <path
           d="m 428.36316,432.21221 c -1.50001,0 -2.62501,-0.44532 -3.375,-1.33594 -0.73438,-0.89062 -1.10157,-2.14062 -1.10156,-3.75 v -15.44531 h -2.88282 v -1.05469 l 2.92969,-0.91406 2.36719,-4.99219 h 1.47656 v 4.99219 h 5.03906 v 1.96875 h -5.03906 v 15.02343 c -10e-6,1.01563 0.22656,1.78126 0.67969,2.29688 0.46874,0.51563 1.07812,0.77344 1.82812,0.77344 0.57812,0 1.14843,-0.0391 1.71094,-0.11719 0.57811,-0.0781 1.10936,-0.16406 1.59375,-0.25781 v 1.52343 c -0.23439,0.15625 -0.54689,0.3125 -0.9375,0.46875 -0.37501,0.15625 -0.79688,0.28907 -1.26562,0.39844 -0.45314,0.125 -0.93751,0.22656 -1.45313,0.30469 -0.51563,0.0781 -1.03907,0.11719 -1.57031,0.11719"
           id="path3252"
           inkscape:connector-curvature="0"
           style="stroke-width:0.88891846" />
        <path
           d="m 439.94128,420.65752 v 0.42187 c 0,1.14064 0.0781,2.23439 0.23438,3.28125 0.17187,1.04688 0.49999,1.97657 0.98437,2.78907 0.5,0.79687 1.19531,1.4375 2.08594,1.92187 0.89062,0.46875 2.06249,0.70313 3.51563,0.70313 0.46873,0 0.96092,-0.0156 1.47656,-0.0469 0.51561,-0.0469 1.03123,-0.10156 1.54687,-0.16406 0.51561,-0.0625 1.01561,-0.13281 1.5,-0.21094 0.48436,-0.0781 0.92967,-0.16406 1.33594,-0.25781 v 1.3125 c -0.35939,0.23437 -0.79689,0.46094 -1.3125,0.67969 -0.50002,0.20312 -1.0547,0.39062 -1.66406,0.5625 -0.60939,0.17187 -1.25783,0.30468 -1.94531,0.39843 -0.68752,0.10938 -1.38283,0.16407 -2.08594,0.16407 -1.82814,0 -3.37501,-0.25 -4.64063,-0.75 -1.25,-0.5 -2.26563,-1.24219 -3.04687,-2.22657 -0.78125,-0.98437 -1.34375,-2.20312 -1.6875,-3.65625 -0.34375,-1.45311 -0.51563,-3.12499 -0.51563,-5.01562 0,-3.84374 0.80469,-6.71092 2.41407,-8.60156 1.60937,-1.89061 3.90624,-2.83592 6.89062,-2.83594 1.17186,2e-5 2.26561,0.15627 3.28125,0.46875 1.03124,0.31252 1.92967,0.83596 2.69531,1.57031 0.76561,0.7344 1.36717,1.71877 1.80469,2.95313 0.45311,1.23439 0.67967,2.77345 0.67969,4.61718 v 1.92188 h -13.54688 m 5.08594,-9.65625 c -0.87501,2e-5 -1.63282,0.18752 -2.27344,0.5625 -0.625,0.35939 -1.14844,0.87502 -1.57031,1.54687 -0.40626,0.6719 -0.71094,1.49221 -0.91406,2.46094 -0.18751,0.95314 -0.28126,2.02345 -0.28125,3.21094 h 9.42187 c -1e-5,-1.18749 -0.0703,-2.2578 -0.21093,-3.21094 -0.12502,-0.96873 -0.35939,-1.78904 -0.70313,-2.46094 -0.32814,-0.67185 -0.77345,-1.18748 -1.33594,-1.54687 -0.56251,-0.37498 -1.27345,-0.56248 -2.13281,-0.5625"
           id="path3254"
           inkscape:connector-curvature="0"
           style="stroke-width:0.88891846" />
        <path
           d="m 470.69128,409.12627 v 5.95312 h -1.00781 l -1.35937,-2.57812 c -0.43752,2e-5 -0.90627,0.0313 -1.40625,0.0937 -0.50001,0.0625 -1.00001,0.14845 -1.5,0.25781 -0.50001,0.0938 -0.98439,0.21096 -1.45313,0.35156 -0.45313,0.14065 -0.85157,0.28908 -1.19531,0.44532 v 16.45312 l 3.77344,0.58594 v 1.05469 h -10.45313 v -1.05469 l 2.78906,-0.58594 v -18.75 l -2.78906,-0.58594 v -1.05468 h 6.42188 l 0.21093,2.74218 c 0.35937,-0.29685 0.85156,-0.63279 1.47657,-1.00781 0.62499,-0.3906 1.29686,-0.75779 2.01562,-1.10156 0.73436,-0.34373 1.46093,-0.63279 2.17969,-0.86719 0.73436,-0.23435 1.3828,-0.35154 1.94531,-0.35156 h 0.35156"
           id="path3256"
           inkscape:connector-curvature="0"
           style="stroke-width:0.88891846" />
        <path
           d="m 480.04285,402.51689 c -10e-6,0.34378 -0.0703,0.67191 -0.21094,0.98438 -0.12501,0.2969 -0.3047,0.56253 -0.53906,0.79687 -0.23439,0.23441 -0.50782,0.42191 -0.82032,0.5625 -0.3125,0.12503 -0.64063,0.18753 -0.98437,0.1875 -0.34376,3e-5 -0.67188,-0.0625 -0.98438,-0.1875 -0.29688,-0.14059 -0.5625,-0.32809 -0.79687,-0.5625 -0.23438,-0.23434 -0.42188,-0.49997 -0.5625,-0.79687 -0.125,-0.31247 -0.1875,-0.6406 -0.1875,-0.98438 0,-0.34372 0.0625,-0.67184 0.1875,-0.98437 0.14062,-0.31247 0.32812,-0.58591 0.5625,-0.82031 0.23437,-0.23435 0.49999,-0.41404 0.79687,-0.53907 0.3125,-0.14059 0.64062,-0.2109 0.98438,-0.21093 0.34374,3e-5 0.67187,0.0703 0.98437,0.21093 0.3125,0.12503 0.58593,0.30472 0.82032,0.53907 0.23436,0.2344 0.41405,0.50784 0.53906,0.82031 0.14062,0.31253 0.21093,0.64065 0.21094,0.98437 m -0.23438,27.58594 3.77344,0.58594 v 1.05469 h -11.41406 v -1.05469 l 3.75,-0.58594 v -18.75 l -3.11719,-0.58594 v -1.05468 h 7.00781 v 20.39062"
           id="path3258"
           inkscape:connector-curvature="0"
           style="stroke-width:0.88891846" />
        <path
           d="m 495.37097,409.22002 c 0.99999,2e-5 1.92968,0.0938 2.78906,0.28125 0.85936,0.18752 1.60155,0.50783 2.22657,0.96094 0.62498,0.45314 1.10935,1.07033 1.45312,1.85156 0.35936,0.76564 0.53905,1.73439 0.53906,2.90625 v 14.88281 l 2.74219,0.58594 v 1.05469 h -6.04687 l -0.44532,-2.20313 c -0.23438,0.23438 -0.5547,0.50782 -0.96093,0.82031 -0.39064,0.3125 -0.8672,0.60938 -1.42969,0.89063 -0.56251,0.26562 -1.21876,0.49219 -1.96875,0.67969 -0.73438,0.1875 -1.5547,0.28125 -2.46094,0.28125 -1.0625,0 -1.96094,-0.16407 -2.69531,-0.49219 -0.71875,-0.32813 -1.29688,-0.78125 -1.73438,-1.35938 -0.4375,-0.59374 -0.75,-1.28906 -0.9375,-2.08593 -0.1875,-0.8125 -0.28125,-1.6875 -0.28125,-2.625 0,-0.96875 0.11719,-1.80468 0.35157,-2.50782 0.23437,-0.71874 0.56249,-1.3203 0.98437,-1.80468 0.42187,-0.48437 0.91406,-0.87499 1.47656,-1.17188 0.57812,-0.31249 1.19531,-0.55467 1.85157,-0.72656 0.67186,-0.17186 1.37499,-0.28905 2.10937,-0.35156 0.74999,-0.0625 1.49999,-0.10155 2.25,-0.11719 l 3.30469,-0.0937 v -3.44531 c -10e-6,-0.65624 -0.0547,-1.24999 -0.16406,-1.78125 -0.10939,-0.54686 -0.29689,-1.01561 -0.5625,-1.40625 -0.25002,-0.39061 -0.59377,-0.6953 -1.03125,-0.91407 -0.43752,-0.21873 -0.98439,-0.3281 -1.64063,-0.32812 -0.75001,2e-5 -1.50782,0.10158 -2.27344,0.30469 -0.76563,0.20314 -1.4375,0.46877 -2.01562,0.79687 l -0.79688,2.74219 h -1.3125 v -4.80469 c 1.01562,-0.21873 2.0625,-0.40623 3.14063,-0.5625 1.09374,-0.17185 2.27343,-0.25779 3.53906,-0.25781 m 3.11719,11.29687 -3.07031,0.0937 c -0.92189,0.0313 -1.71876,0.12501 -2.39063,0.28125 -0.67188,0.14064 -1.22657,0.39064 -1.66406,0.75 -0.43751,0.35939 -0.76563,0.85158 -0.98438,1.47657 -0.21875,0.625 -0.32813,1.42188 -0.32812,2.39062 -10e-6,2.75 1.11718,4.125 3.35156,4.125 1.06249,0 1.97655,-0.11718 2.74219,-0.35156 0.78124,-0.25 1.56249,-0.5625 2.34375,-0.9375 v -7.82813"
           id="path3260"
           inkscape:connector-curvature="0"
           style="stroke-width:0.88891846" />
        <path
           d="m 514.35535,430.10283 3.77343,0.58594 v 1.05469 h -11.41406 v -1.05469 l 3.75,-0.58594 v -30.04687 l -3.75,-0.5625 v -1.05469 h 7.64063 v 31.66406"
           id="path3262"
           inkscape:connector-curvature="0"
           style="stroke-width:0.88891846" />
        <path
           d="m 527.9491,402.51689 c -1e-5,0.34378 -0.0703,0.67191 -0.21094,0.98438 -0.12501,0.2969 -0.3047,0.56253 -0.53906,0.79687 -0.23439,0.23441 -0.50782,0.42191 -0.82032,0.5625 -0.3125,0.12503 -0.64063,0.18753 -0.98437,0.1875 -0.34376,3e-5 -0.67188,-0.0625 -0.98438,-0.1875 -0.29688,-0.14059 -0.5625,-0.32809 -0.79687,-0.5625 -0.23438,-0.23434 -0.42188,-0.49997 -0.5625,-0.79687 -0.125,-0.31247 -0.1875,-0.6406 -0.1875,-0.98438 0,-0.34372 0.0625,-0.67184 0.1875,-0.98437 0.14062,-0.31247 0.32812,-0.58591 0.5625,-0.82031 0.23437,-0.23435 0.49999,-0.41404 0.79687,-0.53907 0.3125,-0.14059 0.64062,-0.2109 0.98438,-0.21093 0.34374,3e-5 0.67187,0.0703 0.98437,0.21093 0.3125,0.12503 0.58593,0.30472 0.82032,0.53907 0.23436,0.2344 0.41405,0.50784 0.53906,0.82031 0.14062,0.31253 0.21093,0.64065 0.21094,0.98437 m -0.23438,27.58594 3.77344,0.58594 v 1.05469 H 520.0741 v -1.05469 l 3.75,-0.58594 v -18.75 l -3.11719,-0.58594 v -1.05468 h 7.00781 v 20.39062"
           id="path3264"
           inkscape:connector-curvature="0"
           style="stroke-width:0.88891846" />
      </g>
    </g>
  </g>
</svg>
